<svg version="1.1" id="logo" xmlns="http://www.w3.org/2000/svg" x="0" y="0" viewBox="0 0 76 76" xml:space="preserve"><style>.st0{fill:#fff}.st1{fill:#d4613c}</style><circle class="st0" cx="38" cy="38" r="38"/><g id="exclamation"><ellipse class="st1" cx="37.9" cy="59.4" rx="4" ry="5.5"/><path class="st0" d="M37.9 65.9c-2.8 0-5-2.9-5-6.5s2.2-6.5 5-6.5 5 2.9 5 6.5-2.2 6.5-5 6.5zm0-11c-1.6 0-3 2.1-3 4.5s1.4 4.5 3 4.5 3-2.1 3-4.5-1.3-4.5-3-4.5z"/><path class="st1" d="M38 11.1c-12.6 0 0 38.8 0 38.8s12.6-38.8 0-38.8z"/><path class="st0" d="M38 53.1l-1-2.9c-.4-1.2-9.6-29.7-3.7-37.8 1.9-2.5 5.5-3.1 8-1.2.4.3.8.7 1.2 1.2 5.9 8.1-3.3 36.6-3.6 37.8l-.9 2.9zm0-41c-1.2-.1-2.3.5-3 1.5-3.9 5.4.3 23.4 3 32.9 2.8-9.5 6.9-27.5 3-32.9-.6-1-1.8-1.5-3-1.5z"/></g></svg>