<svg id="logo" xmlns="http://www.w3.org/2000/svg" viewBox="0 0 216.69 76.02"><defs><style>.cls-3{letter-spacing:.01em}.cls-4{letter-spacing:0}.cls-5{letter-spacing:-.02em}.cls-6{letter-spacing:-.03em}.cls-8{fill:#d4613c}.cls-9{fill:#fff}</style></defs><g id="Flashback" style="isolation:isolate" font-size="66" font-family="Breamcatcher-Regular,Breamcatcher"><text style="isolation:isolate" fill="#e25d34" transform="translate(1 59.71)">F<tspan class="cls-3" x="18.28" y="0">l</tspan><tspan class="cls-4" x="36.5" y="0">a</tspan><tspan x="59.99" y="0">sh</tspan><tspan class="cls-5" x="106.45" y="0">b</tspan><tspan class="cls-6" x="127.64" y="0">a</tspan><tspan x="149.75" y="0">ck</tspan></text><text style="isolation:isolate" fill="none" stroke="#fff" stroke-width="2" transform="translate(1 59.71)">F<tspan class="cls-3" x="18.28" y="0">l</tspan><tspan class="cls-4" x="36.5" y="0">a</tspan><tspan x="59.99" y="0">sh</tspan><tspan class="cls-5" x="106.45" y="0">b</tspan><tspan class="cls-6" x="127.64" y="0">a</tspan><tspan x="149.75" y="0">ck</tspan></text></g><g id="exclamation"><ellipse class="cls-8" cx="210" cy="56.71" rx="4" ry="5.5"/><path class="cls-9" d="M210 63.21c-2.76 0-5-2.92-5-6.5s2.24-6.5 5-6.5 5 2.91 5 6.5-2.24 6.5-5 6.5zm0-11c-1.63 0-3 2.06-3 4.5s1.37 4.5 3 4.5 3-2.06 3-4.5-1.37-4.5-3-4.5z"/><path class="cls-8" d="M210.11 8.41c-12.61 0 0 38.8 0 38.8s12.6-38.8 0-38.8z"/><path class="cls-9" d="M210.11 50.45l-1-2.93c-.4-1.21-9.55-29.69-3.66-37.8a5.75 5.75 0 019.21 0c5.9 8.11-3.26 36.59-3.65 37.8zm0-41a3.46 3.46 0 00-3 1.49c-3.91 5.38.21 23.39 3 32.9 2.78-9.51 6.9-27.52 3-32.9a3.48 3.48 0 00-3-1.53z"/></g></svg>